# xmcd
#
# Track frame offsets:
#	150
#	73507
#	100100
#	131774
#	175528
#	196649
#	218225
#	226269
#
# Disc length: 3933 seconds
#
# Revision: 0
# Processed by: cddbd v1.5.2PL0 Copyright (c) Steve Scherf et al.
# Submitted via: audiograbber 1.83.01
#
DISCID=630f5b08
DTITLE=Grateful Dead - 94-04-04 Miami Arena, Miami FL
DYEAR=1900
DGENRE=
TTITLE0=Space
TTITLE1=The Wheel
TTITLE2=All Along The Watchtower
TTITLE3=Standing On The Moon
TTITLE4=Johnny B Goode
TTITLE5=Comes A Time
TTITLE6=Days Between
TTITLE7=Easy Answers
EXTD=
EXTT0=
EXTT1=
EXTT2=
EXTT3=
EXTT4=
EXTT5=
EXTT6=
EXTT7=
PLAYORDER=
